# xmcd
#
# Track frame offsets:
#	150
#	12321
#	24006
#	39367
#	49697
#	62787
#	72892
#	85814
#	101784
#	114236
#	126466
#	140158
#	153692
#	167639
#	184473
#	196362
#	211511
#	226097
#	237462
#	252719
#	268498
#	282123
#
# Disc length: 3922
#
# Revision: 2
# Processed by: cddbd v1.5.1PL0 Copyright (c) Steve Scherf et al.
# Submitted via: audiograbber 1.70
# Normalized: r1:DSETVAR1
#
DISCID=420f5016
DTITLE=Various Artist - 50 Years Of Country Music Vol 1
DYEAR=1900
DGENRE=
TTITLE0=Troubles - Kenny Arledge
TTITLE1=Dixie Darlin' - Lou Anthony
TTITLE2=They Left Their Memory In Good Hands - Rusty Adams
TTITLE3=If You Don't Like Hank Williams - Rayburn Anthony
TTITLE4=When Johnny Cash Comes Back To Folsom - Bobby Borchers
TTITLE5=Ben Bailey's Bottom Farm - Eddie Bond
TTITLE6=John Martin - Bobby Bond
TTITLE7=I'm So Afraid Of Loosing You - Benny Barnes
TTITLE8=Fastest Gun Alive - Benny Barnes
TTITLE9=Bob, All The Playboys And Me - Dorsey Burnette With Sound Company
TTITLE10=I Don't Do Floors - Jann Browne
TTITLE11=Yesterday Once More - Moe Bandy
TTITLE12=Long Black Limousine - The Green River Boys and Glen Campbell
TTITLE13=Too Cold At Home - Mark Chesnutt
TTITLE14=Girls Like Her - Men Like Me - Mark Chesnutt
TTITLE15=Tell Me What You Do - Jerry Collard
TTITLE16=I'll Be Waiting - Bob Carter
TTITLE17=What Gives You The Right - Charlie Carter
TTITLE18=Honky Tonk Angel On The Road - Joey Davis
TTITLE19=I Got A New Heartache (From An Old Ray Price Song) - Ronnie Davis
TTITLE20=Louisiana Joe - Joe Douglas
TTITLE21=It Could Only Be You - Rob Dixon
EXTD=
EXTT0=
EXTT1=
EXTT2=
EXTT3=
EXTT4=
EXTT5=
EXTT6=
EXTT7=
EXTT8=
EXTT9=
EXTT10=
EXTT11=
EXTT12=
EXTT13=
EXTT14=
EXTT15=
EXTT16=
EXTT17=
EXTT18=
EXTT19=
EXTT20=
EXTT21=
PLAYORDER=
